<?xml version="1.0" encoding="UTF-8"?>
<!DOCTYPE svg PUBLIC "-//W3C//DTD SVG 1.1//EN" "http://www.w3.org/Graphics/SVG/1.1/DTD/svg11.dtd">
<svg xmlns="http://www.w3.org/2000/svg" version="1.1" width="210px" height="190px" style="shape-rendering:geometricPrecision; text-rendering:geometricPrecision; image-rendering:optimizeQuality; fill-rule:evenodd; clip-rule:evenodd" xmlns:xlink="http://www.w3.org/1999/xlink">
<g><path style="opacity:1" fill="#e0aa28" d="M 104.5,8.5 C 109.032,9.7632 113.365,11.5965 117.5,14C 139.167,25.8333 160.833,37.6667 182.5,49.5C 183.657,52.7844 183.824,56.1177 183,59.5C 157.323,45.1502 131.657,30.8169 106,16.5C 80.3433,30.8169 54.6767,45.1502 29,59.5C 28.1764,56.1177 28.343,52.7844 29.5,49.5C 54.7221,36.0591 79.7221,22.3925 104.5,8.5 Z"/></g>
<g><path style="opacity:1" fill="#dfa511" d="M 117.5,44.5 C 117.167,83.839 117.5,123.172 118.5,162.5C 119.107,162.376 119.44,162.043 119.5,161.5C 125.262,157.738 131.262,154.404 137.5,151.5C 139.474,141.889 140.141,131.889 139.5,121.5C 146.997,116.917 154.663,112.584 162.5,108.5C 163.167,117.5 163.833,126.5 164.5,135.5C 170.887,132.222 177.053,128.556 183,124.5C 183.5,125 184,125.5 184.5,126C 183.87,129.129 183.204,132.296 182.5,135.5C 157.064,149.301 131.564,162.968 106,176.5C 80.5476,163.193 55.3809,149.527 30.5,135.5C 29.4634,133.262 29.2967,130.929 30,128.5C 30.6708,127.748 31.5041,127.414 32.5,127.5C 52.8325,138.331 72.8325,149.664 92.5,161.5C 92.56,162.043 92.8933,162.376 93.5,162.5C 94.8287,139.003 94.8287,115.67 93.5,92.5C 79.6611,84.7489 65.9945,76.7489 52.5,68.5C 69.6709,58.4136 87.0043,48.5802 104.5,39C 105.5,38.3333 106.5,38.3333 107.5,39C 110.91,40.7432 114.243,42.5765 117.5,44.5 Z"/></g>
<g><path style="opacity:1" fill="#e9d18a" d="M 141.5,58.5 C 140.171,64.1275 139.504,70.1275 139.5,76.5C 139.833,82.5 140.167,88.5 140.5,94.5C 141.183,94.8627 141.85,95.1961 142.5,95.5C 141.48,96.9538 140.313,97.2871 139,96.5C 138.333,83.5 138.333,70.5 139,57.5C 140.159,56.434 140.992,56.7673 141.5,58.5 Z"/></g>
<g><path style="opacity:1" fill="#dfa614" d="M 141.5,58.5 C 148.924,62.074 156.257,65.9073 163.5,70C 164.8,74.4497 164.8,78.9497 163.5,83.5C 156.608,87.7766 149.608,91.7766 142.5,95.5C 141.85,95.1961 141.183,94.8627 140.5,94.5C 140.167,88.5 139.833,82.5 139.5,76.5C 139.504,70.1275 140.171,64.1275 141.5,58.5 Z"/></g>
<g><path style="opacity:1" fill="#dfa617" d="M 72.5,104.5 C 73.1255,111.584 72.4589,118.25 70.5,124.5C 56.5734,117.09 42.7401,109.424 29,101.5C 28.1687,94.144 28.3354,86.8107 29.5,79.5C 44.0601,87.6076 58.3934,95.9409 72.5,104.5 Z"/></g>
<g><path style="opacity:1" fill="#efe0a9" d="M 117.5,44.5 C 118.167,83.5 118.833,122.5 119.5,161.5C 119.44,162.043 119.107,162.376 118.5,162.5C 117.5,123.172 117.167,83.839 117.5,44.5 Z"/></g>
<g><path style="opacity:1" fill="#ddbe4f" d="M 162.5,108.5 C 162.56,107.957 162.893,107.624 163.5,107.5C 164.498,116.81 164.832,126.143 164.5,135.5C 163.833,126.5 163.167,117.5 162.5,108.5 Z"/></g>
<g><path style="opacity:1" fill="#e6cf79" d="M 72.5,104.5 C 73.4912,111.313 73.8245,118.313 73.5,125.5C 72.209,125.737 71.209,125.404 70.5,124.5C 72.4589,118.25 73.1255,111.584 72.5,104.5 Z"/></g>
<g><path style="opacity:1" fill="#e4b950" d="M 32.5,127.5 C 31.5041,127.414 30.6708,127.748 30,128.5C 29.2967,130.929 29.4634,133.262 30.5,135.5C 29.2227,134.306 28.5561,132.64 28.5,130.5C 28.1499,125.765 29.4832,124.765 32.5,127.5 Z"/></g>
<g><path style="opacity:1" fill="#f4e7b9" d="M 93.5,92.5 C 94.8287,115.67 94.8287,139.003 93.5,162.5C 92.8933,162.376 92.56,162.043 92.5,161.5C 93.4975,138.673 93.8308,115.673 93.5,92.5 Z"/></g>
<g><path style="opacity:1" fill="#e8d789" d="M 139.5,121.5 C 140.141,131.889 139.474,141.889 137.5,151.5C 138.144,141.401 138.811,131.401 139.5,121.5 Z"/></g>
</svg>
